<?xml version="1.0" standalone="no"?>
<!DOCTYPE svg PUBLIC "-//W3C//DTD SVG 20010904//EN"
 "http://www.w3.org/TR/2001/REC-SVG-20010904/DTD/svg10.dtd">
<svg version="1.0" xmlns="http://www.w3.org/2000/svg"
 width="483.000000pt" height="647.000000pt" viewBox="0 0 483.000000 647.000000"
 preserveAspectRatio="xMidYMid meet">

<g transform="translate(0.000000,647.000000) scale(0.100000,-0.100000)"
fill="#000000" stroke="none">
<path d="M2365 6404 c-38 -8 -99 -16 -135 -20 -36 -3 -74 -9 -85 -13 -11 -5
-45 -13 -75 -19 -81 -17 -201 -51 -234 -68 -16 -8 -33 -14 -37 -14 -4 0 -36
-13 -71 -29 -106 -49 -136 -61 -145 -61 -5 0 -16 -8 -25 -17 -26 -28 -46 -43
-57 -43 -11 0 -38 -20 -76 -56 -12 -12 -32 -25 -45 -29 -13 -4 -33 -17 -45
-29 -37 -35 -65 -56 -75 -56 -13 0 -230 -215 -230 -228 0 -6 -3 -12 -7 -14 -5
-1 -21 -23 -38 -48 -16 -25 -32 -47 -35 -50 -18 -16 -100 -143 -100 -155 0 -7
-3 -15 -7 -17 -13 -5 -53 -89 -53 -109 0 -10 -4 -19 -10 -19 -5 0 -10 -9 -10
-19 0 -11 -4 -23 -10 -26 -6 -3 -10 -15 -10 -26 0 -10 -4 -19 -10 -19 -5 0
-10 -6 -10 -14 0 -7 -7 -27 -15 -42 -8 -16 -15 -39 -15 -51 0 -13 -4 -23 -10
-23 -5 0 -10 -8 -10 -18 0 -10 -9 -35 -20 -57 -11 -22 -20 -47 -20 -57 0 -10
-4 -18 -10 -18 -5 0 -10 -13 -10 -30 0 -16 -4 -30 -8 -30 -5 0 -15 -25 -22
-55 -7 -30 -16 -55 -20 -55 -4 0 -11 -25 -15 -55 -3 -30 -11 -55 -16 -55 -5 0
-9 -18 -9 -40 0 -22 -4 -40 -10 -40 -5 0 -10 -16 -10 -35 0 -24 -6 -39 -20
-47 -11 -7 -20 -23 -20 -36 0 -12 -4 -30 -10 -40 -5 -9 -18 -48 -29 -87 -10
-38 -26 -95 -35 -126 -9 -31 -16 -63 -16 -73 0 -9 -4 -24 -9 -34 -9 -18 -27
-84 -45 -169 -6 -28 -15 -55 -19 -59 -4 -4 -7 -24 -7 -45 0 -21 -13 -96 -29
-167 -16 -71 -33 -151 -36 -176 -4 -25 -11 -46 -16 -46 -5 0 -9 -20 -9 -45 0
-25 -4 -64 -10 -87 -15 -66 -41 -225 -50 -308 -5 -41 -13 -104 -19 -140 -11
-65 -36 -262 -53 -420 -15 -132 -21 -430 -9 -470 5 -19 15 -71 21 -115 19
-144 44 -275 52 -275 5 0 8 -20 8 -45 0 -25 4 -45 8 -45 5 0 14 -25 21 -55 7
-30 17 -57 22 -60 5 -4 9 -17 9 -31 0 -13 5 -24 10 -24 6 0 10 -7 10 -14 0 -8
16 -49 35 -92 19 -42 35 -83 35 -90 0 -8 4 -14 8 -14 4 0 13 -12 20 -27 39
-88 139 -232 160 -233 6 0 12 -4 12 -8 0 -5 11 -22 25 -38 14 -16 25 -32 25
-36 0 -11 78 -88 89 -88 6 0 11 -4 11 -10 0 -5 5 -10 11 -10 13 0 103 -90 111
-112 6 -15 110 -94 159 -121 30 -16 82 -50 89 -57 3 -4 12 -10 20 -14 20 -9
47 -26 99 -61 69 -47 104 -64 134 -65 15 0 27 -4 27 -10 0 -5 7 -10 15 -10 8
0 15 -4 15 -9 0 -5 18 -12 40 -16 22 -4 40 -11 40 -16 0 -5 9 -9 20 -9 11 0
20 -4 20 -10 0 -5 16 -10 35 -10 19 0 35 -4 35 -10 0 -5 13 -10 29 -10 17 0
33 -4 36 -10 3 -5 15 -10 26 -10 10 0 19 -4 19 -10 0 -6 27 -10 60 -10 33 0
60 -4 60 -10 0 -5 7 -10 15 -10 8 0 15 -4 15 -9 0 -4 41 -11 92 -15 56 -4 95
-11 100 -19 10 -16 995 -17 1006 -1 4 6 34 14 67 18 33 4 62 11 63 16 2 6 17
10 33 10 16 0 29 5 29 10 0 6 13 10 29 10 17 0 33 4 36 10 3 5 19 10 36 10 16
0 29 5 29 10 0 6 14 10 30 10 17 0 30 5 30 10 0 6 7 10 15 10 24 0 95 24 95
32 0 5 7 8 15 8 30 0 176 70 182 88 3 7 20 19 37 27 17 8 40 20 51 27 122 77
161 103 165 108 3 3 12 10 21 15 92 58 129 87 129 103 0 5 12 18 28 28 35 23
242 232 242 244 0 6 6 10 13 10 7 0 20 12 30 28 9 15 30 42 47 61 16 18 30 40
30 47 0 8 4 14 8 14 5 0 19 23 32 50 13 28 26 50 29 50 3 0 17 27 31 60 14 33
28 60 33 60 4 0 7 5 7 11 0 6 6 25 14 42 7 18 24 66 37 107 12 41 26 80 30 85
3 6 9 24 12 40 3 17 15 73 27 125 11 52 25 131 30 174 5 43 14 84 19 89 13 13
16 549 4 561 -5 4 -13 76 -20 159 -6 84 -16 175 -22 202 -6 28 -16 86 -22 130
-12 96 -21 145 -49 290 -12 61 -24 135 -27 165 -3 30 -10 61 -15 67 -6 7 -13
42 -16 78 -2 36 -9 68 -13 71 -5 3 -9 20 -9 37 0 18 -7 70 -16 117 -9 47 -20
130 -25 185 -5 55 -13 141 -19 190 -18 165 -29 328 -36 545 -4 118 -10 220
-14 225 -4 6 -10 43 -13 84 -3 41 -11 79 -17 85 -5 5 -10 18 -10 28 0 45 -63
203 -85 211 -8 4 -15 18 -15 32 0 14 -4 25 -10 25 -5 0 -10 10 -10 23 0 13 -7
32 -15 43 -8 10 -15 27 -15 37 0 9 -3 17 -7 17 -5 0 -19 18 -33 40 -13 22 -28
40 -32 40 -4 0 -8 7 -8 15 0 8 -4 15 -9 15 -5 0 -16 15 -25 34 -9 18 -39 58
-68 88 -29 29 -64 68 -77 86 -13 17 -55 58 -94 89 -38 32 -75 64 -83 71 -7 6
-17 12 -23 12 -6 0 -11 3 -11 8 0 4 -21 20 -48 37 -26 16 -55 37 -65 46 -9 9
-30 22 -45 30 -15 8 -36 22 -46 32 -11 9 -25 17 -31 17 -6 0 -20 8 -31 19 -11
10 -37 21 -57 25 -20 4 -37 11 -37 16 0 6 -6 10 -13 10 -12 0 -80 29 -119 50
-10 6 -27 10 -38 10 -11 0 -20 3 -20 8 0 4 -28 15 -63 25 -34 10 -90 27 -125
38 -34 10 -73 19 -87 19 -13 0 -26 4 -29 9 -3 4 -38 11 -78 14 -40 3 -109 13
-153 21 -98 19 -266 19 -360 0z m413 -154 c53 -6 111 -15 127 -19 17 -5 68
-16 115 -26 402 -81 845 -376 1068 -710 200 -301 244 -465 262 -984 11 -300
31 -509 70 -731 50 -280 97 -541 110 -605 5 -27 14 -86 20 -130 5 -44 16 -123
24 -175 64 -405 78 -794 38 -1050 -29 -179 -39 -234 -51 -273 -5 -17 -17 -61
-26 -97 -21 -85 -84 -225 -148 -328 -29 -46 -64 -104 -79 -128 -97 -157 -411
-432 -618 -541 -52 -28 -111 -59 -130 -70 -69 -39 -276 -121 -355 -141 -44
-12 -114 -29 -155 -40 -208 -54 -367 -73 -614 -73 -253 0 -415 19 -631 73 -44
11 -103 26 -132 33 -113 28 -289 96 -390 151 -26 14 -86 46 -133 71 -174 92
-445 323 -567 483 -22 28 -173 277 -173 284 0 3 -17 42 -39 88 -42 90 -70 179
-95 303 -10 44 -21 96 -26 115 -5 19 -16 102 -25 184 -24 212 -13 577 24 786
10 56 28 186 57 410 21 170 94 533 156 775 28 110 56 225 63 255 7 30 20 82
29 115 10 33 21 76 26 95 13 48 216 650 247 730 110 286 245 499 427 675 101
98 221 194 286 228 30 16 60 33 65 37 31 24 194 101 280 132 113 41 311 85
430 97 119 12 353 12 463 1z"/>
<path d="M1466 4399 c-56 -38 -90 -80 -111 -138 -19 -55 -19 -86 0 -142 32
-95 123 -160 223 -160 139 -1 236 94 236 231 0 74 -17 114 -73 173 -47 50 -89
67 -166 67 -52 0 -69 -5 -109 -31z"/>
<path d="M3523 4406 c-117 -67 -165 -195 -115 -308 85 -192 389 -183 443 14
15 56 5 169 -18 205 -47 75 -116 113 -205 113 -48 0 -73 -6 -105 -24z"/>
<path d="M2416 4208 c-12 -17 -16 -50 -16 -144 0 -138 11 -166 65 -166 27 0
67 32 77 63 3 9 38 12 130 12 128 -1 148 -4 148 -27 0 -21 34 -46 63 -46 14 0
35 10 47 22 18 20 20 35 20 149 0 124 -1 127 -25 143 -50 33 -81 20 -114 -47
l-16 -32 -120 4 c-66 1 -123 5 -127 8 -5 2 -8 12 -8 22 0 52 -94 82 -124 39z"/>
<path d="M959 2664 c-12 -34 -3 -63 24 -73 49 -19 73 25 41 74 -21 33 -52 32
-65 -1z"/>
<path d="M383 2370 c-52 -31 -67 -62 -59 -123 4 -28 9 -78 13 -110 7 -69 34
-100 115 -134 65 -26 78 -20 108 48 32 76 30 128 -7 176 -16 21 -36 53 -43 72
-18 45 -58 91 -78 91 -10 0 -31 -9 -49 -20z"/>
<path d="M1047 2010 c-29 -34 -51 -124 -41 -164 10 -39 41 -56 105 -56 40 0
63 5 79 18 21 17 21 20 9 82 -11 55 -19 70 -57 107 -24 24 -50 43 -57 43 -7 0
-25 -13 -38 -30z"/>
<path d="M705 1503 c-28 -27 -55 -101 -55 -148 0 -57 27 -116 86 -192 27 -34
63 -82 81 -106 25 -35 39 -45 70 -50 56 -10 160 11 190 38 l26 22 -17 103
c-27 160 -59 213 -145 240 -24 8 -74 36 -110 62 -70 51 -99 58 -126 31z"/>
<path d="M1754 670 c-22 -34 -25 -45 -16 -64 12 -26 55 -39 103 -29 56 11 51
65 -9 107 -21 14 -41 26 -45 26 -4 0 -19 -18 -33 -40z"/>
</g>
</svg>
